# xmcd CD database file
#
# Track frame offsets:
#	150
#	14551
#	26694
#	50714
#	63809
#	76542
#	92160
#	101148
#	111737
#	126194
#	138809
#	154549
#	169036
#
# Disc length: 2492 seconds
#
# Revision: 0
# Processed by: cddbd v1.4PL0 Copyright (c) Steve Scherf et al.
# Submitted via: CDex 1.40Release
#
DISCID=a609ba0d
DTITLE=Freiensteiner Musikganoven - steirisch zart and hart
DYEAR=1900
DGENRE=Country
TTITLE0=Musik
TTITLE1=Holzhackerjoe
TTITLE2=Ganovenbluat
TTITLE3=Beim Traktorwirt Eberhard
TTITLE4=Moch mas's selber
TTITLE5=Marianne
TTITLE6=Auf der Jodleralm
TTITLE7=Wadlstampfer
TTITLE8=I bin I
TTITLE9=Is wurscht
TTITLE10=Edelweiss
TTITLE11=Im Dorf spieln heut die Steirer auf
TTITLE12=Ganovenbluat (Radioversion)
EXTD=ID3G: 2
EXTT0=
EXTT1=
EXTT2=
EXTT3=
EXTT4=
EXTT5=
EXTT6=
EXTT7=
EXTT8=
EXTT9=
EXTT10=
EXTT11=
EXTT12=
PLAYORDER=
